PathFileType	4	(X/Y/Z)	C:\Users\Gabre\Documents\2-Sophmore\Autumn\ME 191\Nick_10292018\Nick_10292018\Upper Extremity\static_upper.trc																																																																			
DataRate	CameraRate	NumFrames	NumMarkers	Units	OrigDataRate	OrigDataStartFrame	OrigNumFrames																																																															
100	100	8	23	mm	100	127	253																																																															
Frame#	Time	Back_IMU_O			Back_IMU_D			Back_IMU_X			Back_IMU_Y			c7			aa			L.Acromion			ij			EpL			EpM			R.Radius			R.Ulna			R.Hand			Humerus_IMU_O			Humerus_IMU_D			Humerus_IMU_X			Humerus_IMU_Y			Forearm_IMU_O			Forearm_IMU_D			Forearm_IMU_X			Forearm_IMU_Y			Hand_IMU_O			Scapula_IMU_O		
		X1	Y1	Z1	X2	Y2	Z2	X3	Y3	Z3	X4	Y4	Z4	X5	Y5	Z5	X6	Y6	Z6	X7	Y7	Z7	X8	Y8	Z8	X9	Y9	Z9	X10	Y10	Z10	X11	Y11	Z11	X12	Y12	Z12	X13	Y13	Z13	X14	Y14	Z14	X15	Y15	Z15	X16	Y16	Z16	X17	Y17	Z17	X18	Y18	Z18	X19	Y19	Z19	X20	Y20	Z20	X21	Y21	Z21	X22	Y22	Z22	X23	Y23	Z23
																																																																						
127	1.26	-586.05469	503.46002	1011.43323	-612.36389	572.79486	900.42413	-596.67792	588.09601	1001.08435	-602.3952	489.52026	910.70471	-580.97064	549.40216	1025.18518	-457.65231	407.39307	1008.39923	-508.64462	731.78552	977.07727	-408.8764	572.51813	984.18823	-155.00754	315.62915	955.2832	-156.11752	350.19565	885.7207	108.07159	400.26303	1011.2052	98.83656	339.42435	1026.24097	219.74844	394.65311	1020.88757	-339.55231	367.61002	1027.38293	-300.22638	295.31445	928.96777	-364.89957	297.63165	945.41949	-276.31473	363.17657	1009.84406	30.93978	407.64386	1014.8562	76.94598	309.24677	1023.93445	30.76933	308.74387	1017.84595	77.23817	407.69638	1021.38855	173.53882	376.9935	1040.04822	-485.72562	369.70462	1011.15796
128	1.27	-586.14886	503.55536	1011.44495	-612.36389	572.79486	900.42413	-596.71411	588.0918	1001.07477	-602.35748	489.5795	910.72394	-580.96942	549.41937	1025.22852	-457.64218	407.45264	1008.35132	-508.61948	731.88342	977.0506	-408.87894	572.51611	984.32361	-155.09813	315.68958	955.0094	-156.10495	349.85535	885.74493	108.06871	400.26151	1011.11176	98.78368	339.46402	1026.11768	219.72328	394.68439	1020.73315	-339.60574	367.48618	1027.35974	-300.22873	295.29681	928.73962	-364.98132	297.64136	945.25708	-276.36417	363.21109	1009.73407	30.96398	407.66156	1014.75342	76.92337	309.22293	1023.76544	30.75829	308.82309	1017.57202	77.14959	407.6207	1021.23346	173.50339	376.98398	1039.91565	-485.7872	369.71146	1011.18323
129	1.28	-586.22028	503.59082	1011.47467	-612.43933	572.90057	900.39691	-596.7038	588.20239	1001.11768	-602.31842	489.68509	910.7301	-580.97125	549.49884	1025.22705	-457.7009	407.55353	1008.37549	-508.65875	731.8858	977.07166	-408.88208	572.51074	984.34747	-155.0715	315.64069	954.84546	-156.14256	349.6467	885.77661	107.98673	400.28	1011.06879	98.75459	339.34131	1025.93762	219.68785	394.71164	1020.71027	-339.59451	367.47821	1027.25806	-300.22879	295.18811	928.67371	-364.97318	297.51431	945.1637	-276.4278	363.10098	1009.5661	30.96047	407.67337	1014.49567	76.98294	309.1264	1023.59259	30.7784	308.66922	1017.49561	77.28397	407.3006	1021.21619	173.4803	376.95654	1039.79138	-485.63724	369.79031	1011.19202
130	1.29	-586.24121	503.59131	1011.49445	-612.47736	572.99286	900.42603	-596.66528	588.26929	1001.14868	-602.32111	489.69614	910.66962	-580.91125	549.59558	1025.25476	-457.74289	407.48318	1008.3938	-508.58713	731.90509	977.06287	-408.99768	572.51227	984.34064	-155.48116	317.57333	953.74377	-155.98805	349.3696	885.8103	107.95958	400.32196	1011.00018	98.76733	339.38855	1025.83154	219.645	394.76657	1020.61206	-339.52145	367.40994	1027.12268	-300.32391	295.17514	928.62183	-365.03586	297.58923	945.13043	-276.61667	363.12457	1009.3559	30.91935	407.61252	1014.42322	76.9848	309.20187	1023.50586	30.54027	308.7218	1017.19989	77.21626	407.26306	1021.15283	173.46312	376.97818	1039.73853	-485.64679	369.77084	1011.16455
131	1.3	-586.10419	503.64035	1011.36011	-612.36786	573.01556	900.3446	-596.67633	588.32446	1001.16364	-602.30402	489.69199	910.69745	-580.89252	549.6275	1025.2915	-457.68747	407.52866	1008.34113	-508.55472	731.91589	977.12946	-408.99258	572.50873	984.35718	-155.44894	317.40475	953.56921	-156.03883	349.31854	885.72546	107.87921	400.37424	1010.88751	98.82076	339.37241	1025.74915	219.52322	394.93991	1020.46777	-339.42734	367.25735	1027.07434	-300.36118	295.04688	928.50964	-365.06573	297.51355	945.03729	-276.42871	363.00244	1009.14972	30.7428	407.63449	1014.35657	76.94614	309.19659	1023.32227	30.50871	308.59073	1017.16992	77.20479	407.21082	1021.27808	173.42123	377.04636	1039.6084	-485.7309	369.68802	1011.17059
132	1.31	-586.13519	503.64124	1011.40131	-612.17017	573.05591	900.20166	-596.67621	588.43518	1001.1991	-602.17609	489.71329	910.61353	-580.90405	549.65356	1025.28088	-457.7644	407.46478	1008.30249	-508.52133	731.93146	977.10443	-408.94946	572.39362	984.34332	-155.50392	317.23651	953.45123	-155.87369	349.12177	885.73834	107.90611	400.41592	1010.81213	98.77929	339.36075	1025.66345	219.49669	395.04312	1020.41693	-339.81857	367.10373	1026.8291	-300.40189	294.97287	928.44031	-365.22949	297.54614	944.83002	-276.38657	362.82144	1009.14435	30.51319	407.72342	1014.27808	76.94039	309.1377	1023.21222	30.51362	308.57578	1016.93701	77.0636	407.31412	1021.21722	173.35304	377.07346	1039.50623	-485.77884	369.7901	1011.08484
133	1.32	-586.04877	503.66208	1011.34808	-612.2525	573.10803	900.19586	-596.74768	588.48389	1001.1709	-602.26678	489.79279	910.68542	-580.90283	549.65399	1025.28748	-457.72211	407.43942	1008.27814	-508.5141	731.93146	977.10626	-409.00281	572.50336	984.30817	-155.17184	315.04813	954.28149	-155.83624	349.15811	885.46185	107.73568	400.46161	1010.64172	98.7298	339.45428	1025.50916	219.42854	395.12247	1020.36371	-339.80872	366.98471	1026.87952	-300.37961	294.89697	928.33997	-365.367	297.49673	944.70782	-276.38412	362.61237	1009.11346	30.40923	407.71716	1014.11761	76.95081	309.11966	1023.09369	30.5305	308.70938	1016.70367	76.94377	407.30945	1021.12201	173.32776	377.14026	1039.40308	-485.79831	369.73376	1011.07153
134	1.33	-586.04541	503.66196	1011.34265	-612.09119	573.12927	900.12518	-596.7323	588.48389	1001.16187	-602.12805	489.8461	910.62885	-580.90088	549.65417	1025.28125	-457.69565	407.34167	1008.24097	-508.47449	731.95038	977.12793	-408.98102	572.46765	984.26892	-155.09795	314.95773	954.17511	-156.06882	348.78439	885.36133	107.64904	400.50815	1010.52399	98.58386	339.50259	1025.44739	219.38657	395.20746	1020.24902	-339.84976	366.84506	1026.83704	-300.54877	294.78021	928.2262	-365.40906	297.46695	944.62061	-276.23578	362.2934	1009.04309	30.41406	407.76016	1013.89221	77.02026	309.10095	1023.02985	30.56313	308.68961	1016.52563	76.83546	407.39996	1020.93494	173.22096	377.21057	1039.26855	-485.82535	369.73944	1010.98669
